<?xml version="1.0" standalone="no"?>
<!DOCTYPE svg PUBLIC "-//W3C//DTD SVG 20010904//EN"
 "http://www.w3.org/TR/2001/REC-SVG-20010904/DTD/svg10.dtd">
<svg version="1.0" xmlns="http://www.w3.org/2000/svg"
 width="900.000000pt" height="500.000000pt" viewBox="0 0 900.000000 500.000000"
 preserveAspectRatio="xMidYMid meet">

<g transform="translate(0.000000,500.000000) scale(0.100000,-0.100000)"
fill="#000000" stroke="none">
<path d="M1300 3345 c-82 -17 -183 -53 -246 -90 -27 -15 -97 -76 -155 -135
-166 -167 -184 -214 -229 -610 -30 -263 -39 -309 -71 -371 -49 -98 -198 -168
-356 -169 l-53 0 0 -151 0 -152 61 7 c80 9 231 48 308 79 146 59 260 155 310
261 39 81 58 178 71 366 23 324 53 422 157 521 70 67 202 139 282 155 l31 7 0
148 c0 171 11 158 -110 134z"/>
<path d="M2031 3344 c-169 -45 -329 -183 -420 -361 -21 -42 -21 -48 -21 -678
l0 -635 160 0 160 0 0 580 c0 657 -5 611 83 708 121 131 337 117 429 -27 l28
-45 0 -223 0 -223 -185 0 -185 0 0 -160 0 -160 175 0 175 0 0 -220 0 -220 175
0 175 0 0 638 0 637 -24 50 c-78 166 -251 302 -434 340 -85 19 -221 18 -291
-1z"/>
<path d="M2970 2500 l0 -820 175 0 175 0 0 295 0 295 263 0 264 0 60 30 c131
66 239 220 268 385 19 107 18 163 -4 271 -34 166 -104 265 -231 327 l-65 32
-452 3 -453 3 0 -821z m830 524 c59 -50 75 -96 75 -215 0 -98 -2 -110 -30
-165 l-31 -59 -257 -3 -257 -2 0 235 0 235 234 0 234 0 32 -26z"/>
</g>
</svg>
